<svg width="42" height="42" viewBox="0 0 42 42" fill="none" xmlns="http://www.w3.org/2000/svg">
<path d="M27.948 20.878L40.291 8.53601C42.244 6.58301 42.244 3.41701 40.291 1.46501C38.34 -0.486993 35.172 -0.486993 33.221 1.46501L20.878 13.809L8.535 1.46501C6.584 -0.486993 3.416 -0.486993 1.465 1.46501C-0.487998 3.41801 -0.487998 6.58401 1.465 8.53601L13.807 20.878L1.465 33.22C-0.487998 35.173 -0.487998 38.339 1.465 40.291C2.44 41.268 3.721 41.755 5 41.755C6.278 41.755 7.56 41.268 8.535 40.291L20.878 27.949L33.221 40.292C34.197 41.269 35.477 41.756 36.756 41.756C38.035 41.756 39.316 41.269 40.291 40.292C42.244 38.339 42.244 35.173 40.291 33.221L27.948 20.878Z" fill="white"/>
</svg>
